# xmcd
# 
# Track frame offsets:
#     150
#     12794
#     23714
#     32234
#     44472
#     60948
#     69768
#     81266
#     90940
#     106844
#     119692
#     128298
#     138036
#     152236
#     168577
#     180761
#     192311
#     203665
#     214662
#     226708
#     239496
#     247720
#     259264
#     270967
#     281029
#     293229
#     304661
# 
# Disc length: 4303
# 
# Revision: 2
# Processed by: cddbd v1.5.2PL0 Copyright (c) Steve Scherf et al.
# Submitted via: fre:ac v1.0.27
# 
DISCID=5a10cd1b
DTITLE=Various Artist - BARE NECESSITIES
DYEAR=2015
DGENRE=Blues
TTITLE0=MOOHAH WILLIAMS - ALL SHOOK OUT
TTITLE1=MELVIN SMITH - LOOPED
TTITLE2=ROY LEE JOHNSON - BLACK PEPPER WILL MAKE YOU SNEEZE
TTITLE3=MARY WELLS - YOU BEAT ME TO THE PUNCH
TTITLE4=WOLFGANG SAUER - FOR YOU MY LOVE
TTITLE5=JO ANN CAMPBELL - NERVOUS
TTITLE6=BILL RAMSEY - BIG FAT MAMA
TTITLE7=DAVE BARKER - LIFE OF A MILLIONAIRE
TTITLE8=CEASAR - MAKING BACCHANAL
TTITLE9=JON THOMAS - HEARTBREAK (IT'S HURTING ME)
TTITLE10=RONNIE SELF - THIS MUST BE THE PLACE
TTITLE11=CHUCK BERRY - BEAUTIFUL DELILAH
TTITLE12=BILLY EMERSON - THE WOODCHUCK
TTITLE13=EMBRYO - I LIKE TO MAKE LOVE
TTITLE14=HOWLIN' WOLF - CHOCOLATE DROP
TTITLE15=SONNY TERRY - RIDE AND ROLL
TTITLE16=SLIM HARPO - SHAKE YOUR HIPS
TTITLE17=CHRISTINE KITTRELL - BLACK CAT CROSSED MY TRAIL
TTITLE18=BILLY LOVE - DROP TOP
TTITLE19=WILLIE MAE 'BIG MAMA'  THORNTON - HOUND DOG
TTITLE20=LOUIS JORDAN - WORKIN' MAN
TTITLE21=HERBIE LEE III - CHAMPAGNE CHARLENE
TTITLE22=THE DANLEERS - A PICTURE OF YOU
TTITLE23=BILLY BROWN - RUN 'EM OFF
TTITLE24=FRANK FROST - EVERYTHING'S ALRIGHT
TTITLE25=JIM FORD - BIG MOUTH USA
TTITLE26=LOUIE AND THE LOVERS - RISE
EXTD=Bear Family Records
EXTT0=
EXTT1=
EXTT2=
EXTT3=
EXTT4=
EXTT5=
EXTT6=
EXTT7=
EXTT8=
EXTT9=
EXTT10=
EXTT11=
EXTT12=
EXTT13=
EXTT14=
EXTT15=
EXTT16=
EXTT17=
EXTT18=
EXTT19=
EXTT20=
EXTT21=
EXTT22=
EXTT23=
EXTT24=
EXTT25=
EXTT26=
PLAYORDER=
